<svg xmlns="http://www.w3.org/2000/svg" xmlns:xlink="http://www.w3.org/1999/xlink" width="200.96" height="184.032" viewBox="0 0 200.96 184.032">
  <metadata><?xpacket begin="﻿" id="W5M0MpCehiHzreSzNTczkc9d"?>
<x:xmpmeta xmlns:x="adobe:ns:meta/" x:xmptk="Adobe XMP Core 5.6-c142 79.160924, 2017/07/13-01:06:39        ">
   <rdf:RDF xmlns:rdf="http://www.w3.org/1999/02/22-rdf-syntax-ns#">
      <rdf:Description rdf:about=""/>
   </rdf:RDF>
</x:xmpmeta>                                                               

<?xpacket end="w"?></metadata>
<defs>
    <style>
      .cls-2 {
        fill: #8d8d8d;
        fill-rule: evenodd;
        opacity: 0.5;
        filter: url(#filter2);
      }
    </style>
    <filter id="filter2" x="1344.88" y="442.406" width="200.96" height="184.032" filterUnits="userSpaceOnUse">
      <feFlood result="flood" flood-color="#00c0c0"/>
      <feComposite result="composite" operator="in" in2="SourceGraphic"/>
      <feBlend result="blend" in2="SourceGraphic"/>
    </filter>
  </defs>
  <path id="" class="cls-2" d="M1453.75,443.436a95.474,95.474,0,0,1,20.93-.756c0.89,0.077,1.79.171,2.69,0.283s1.8,0.243,2.71.392q2.715,0.448,5.48,1.134c1.83,0.459,3.68,1,5.52,1.629,0.46,0.156.93,0.319,1.39,0.486s0.92,0.341,1.38.519c0.93,0.357,1.85.734,2.77,1.134,14.86,6.5,28.69,18.064,36.83,32.162,4.38,7.2,7.05,15.276,8.74,23.9,0.42,2.15.78,4.328,1.09,6.52s0.57,4.4.79,6.606c0.45,4.413.76,8.826,1.08,13.117,0.7,17.373,1.3,32.734-.44,43.6-0.38,1.559-.78,3.029-1.22,4.421s-0.91,2.708-1.41,3.958a44.468,44.468,0,0,1-3.37,6.775,42.391,42.391,0,0,1-8.73,10.149c-6.56,5.569-14.2,9.172-22.38,12.186-16.9,5.746-37.67,9.1-75.9,13.722-1.19.114-2.37,0.218-3.55,0.316s-2.35.185-3.52,0.264c-2.33.159-4.65,0.282-6.94,0.366s-4.54.131-6.76,0.135c-0.56,0-1.11,0-1.66,0l-0.82-.008-0.82-.013q-1.635-.029-3.24-0.09a95.659,95.659,0,0,1-22.72-3.263c-13.05-3.719-20.74-10.867-25.37-20.218-4.69-9.348-6.96-21.329-8.67-34.437-0.83-6.565-1.46-13.435-1.91-20.52-0.22-3.544-.41-7.142-0.55-10.785-0.07-1.821-.13-3.654-0.17-5.5s-0.09-3.7-.12-5.558c0.72-30.254,22.18-56.284,40.84-67.168,19.97-11.452,40.42-11.045,68.03-15.449h0Z" transform="translate(-1344.88 -442.406)"/>
</svg>