<svg xmlns="http://www.w3.org/2000/svg" xmlns:xlink="http://www.w3.org/1999/xlink" width="231.19" height="185.657" viewBox="0 0 231.19 185.657">
  <metadata><?xpacket begin="﻿" id="W5M0MpCehiHzreSzNTczkc9d"?>
<x:xmpmeta xmlns:x="adobe:ns:meta/" x:xmptk="Adobe XMP Core 5.6-c142 79.160924, 2017/07/13-01:06:39        ">
   <rdf:RDF xmlns:rdf="http://www.w3.org/1999/02/22-rdf-syntax-ns#">
      <rdf:Description rdf:about=""/>
   </rdf:RDF>
</x:xmpmeta>
                                                                                                    
                        
<?xpacket end="w"?></metadata>
<defs>
    <style>
      .cls-3 {
        fill: #8d8d8d;
        fill-rule: evenodd;
        opacity: 0.5;
        filter: url(#filter3);
      }
    </style>
    <filter id="filter3" x="1330.25" y="653.031" width="231.19" height="185.657" filterUnits="userSpaceOnUse">
      <feFlood result="flood" flood-color="#00c0c0"/>
      <feComposite result="composite" operator="in" in2="SourceGraphic"/>
      <feBlend result="blend" in2="SourceGraphic"/>
    </filter>
  </defs>
  <path id="" class="cls-3" d="M1461.03,653.048c3.77,0,7.55.094,11.41,0.385,0.96,0.074,1.93.159,2.9,0.258q0.735,0.075,1.47.16t1.47,0.183c1.97,0.258,3.96.579,5.99,0.978q1.515,0.3,3.06.658c1.03,0.24,2.06.5,3.11,0.784q3.135,0.852,6.36,1.981c2.16,0.756,4.35,1.612,6.55,2.57,0.56,0.239,1.11.485,1.66,0.737s1.11,0.509,1.67.774c1.11,0.529,2.23,1.083,3.35,1.661,18.15,9.433,35.4,24.5,43.67,39.538a56.909,56.909,0,0,1,7.46,24.09c0.19,2.059.28,4.123,0.29,6.183s-0.05,4.115-.17,6.154c-0.23,4.08-.71,8.1-1.21,11.973-1.28,7.84-2.73,15.086-4.3,21.616a123.336,123.336,0,0,1-5.26,17.241q-1.035,2.118-2.12,4.027c-0.72,1.276-1.45,2.489-2.21,3.649a59.977,59.977,0,0,1-4.76,6.374A62.636,62.636,0,0,1,1530.53,815c-7.81,5.656-16.43,9.591-25.45,12.825-18.34,6.044-41.16,10.131-77.98,10.873q-1.695-.027-3.39-0.094c-1.12-.045-2.24-0.1-3.35-0.175q-3.33-.216-6.56-0.6t-6.36-.933q-0.78-.138-1.56-0.287c-0.26-.049-0.51-0.1-0.77-0.151s-0.51-.1-0.77-0.157q-1.53-.32-3.03-0.683a76.386,76.386,0,0,1-21.44-8.548c-12.51-7.463-20.82-18.414-26.97-31.569-6.19-13.144-10.85-29.343-14.77-46.1-1.93-8.372-3.62-16.87-4.96-25.149-0.66-4.139-1.24-8.223-1.72-12.209q-0.36-2.99-.63-5.9c-0.19-1.938-.34-3.845-0.47-5.716-1.76-30.276,28.39-38.723,51.9-43.62,24.63-4.9,47.95-3.551,78.78-3.759h0Z" transform="translate(-1330.25 -653.031)"/>
</svg>
