<?xml version="1.0"?>
<svg xmlns="http://www.w3.org/2000/svg" viewBox="0 0 64 64" width="512" height="512"><g id="Outline"><g><path d="M39,19a1,1,0,0,0,1-1V11a1,1,0,0,0-1-1H7a1,1,0,0,0-1,1V33a1,1,0,0,0,1,1H39a1,1,0,0,0,1-1V22a1,1,0,0,0-2,0V32H24V28a4,4,0,0,0-3.11-3.89,5,5,0,1,0-7.78,0A4,4,0,0,0,10,28v4H8V12H38v6A1,1,0,0,0,39,19ZM17,18a3,3,0,1,1-3,3A3,3,0,0,1,17,18ZM12,28a2,2,0,0,1,2-2h6a2,2,0,0,1,2,2v4H12Z"/><path d="M43,20h8a1,1,0,0,0,1-1V11a1,1,0,0,0-1-1H43a1,1,0,0,0-1,1v8A1,1,0,0,0,43,20Zm1-8h6v6H44Z"/><path d="M55,14h2a1,1,0,0,0,0-2H55a1,1,0,0,0,0,2Z"/><path d="M55,18h2a1,1,0,0,0,0-2H55a1,1,0,0,0,0,2Z"/><path d="M42,31a1,1,0,0,0,1,1h8a1,1,0,0,0,0-2H44V24h6v3a1,1,0,0,0,2,0V23a1,1,0,0,0-1-1H43a1,1,0,0,0-1,1Z"/><path d="M55,26h2a1,1,0,0,0,0-2H55a1,1,0,0,0,0,2Z"/><path d="M55,30h2a1,1,0,0,0,0-2H55a1,1,0,0,0,0,2Z"/><path d="M42,43a1,1,0,0,0,1,1h8a1,1,0,0,0,1-1V35a1,1,0,0,0-1-1H43a1,1,0,0,0-1,1Zm2-7h6v6H44Z"/><path d="M55,38h2a1,1,0,0,0,0-2H55a1,1,0,0,0,0,2Z"/><path d="M55,42h2a1,1,0,0,0,0-2H55a1,1,0,0,0,0,2Z"/><path d="M29,38a1,1,0,0,0,0-2H12a1,1,0,0,0,0,2Z"/><path d="M7,41a1,1,0,0,0,1,1H20a1,1,0,0,0,0-2H8A1,1,0,0,0,7,41Z"/><path d="M8,46H33a1,1,0,0,0,0-2H8a1,1,0,0,0,0,2Z"/><path d="M32,22a1,1,0,0,0-.55-.89l-6-3A1,1,0,0,0,24,19v6a1,1,0,0,0,.47.85A1,1,0,0,0,25,26a1,1,0,0,0,.45-.11l6-3A1,1,0,0,0,32,22Zm-6,1.38V20.62L28.76,22Z"/><path d="M27,30h8a1,1,0,0,0,1-1V15a1,1,0,0,0-1-1H22a1,1,0,0,0,0,2H34V28H27a1,1,0,0,0,0,2Z"/><path d="M61,40a1,1,0,0,0-1,1v6a1,1,0,0,1-1,1H5a1,1,0,0,1-1-1V21a1,1,0,0,0-2,0V47a3,3,0,0,0,3,3H23.38l-3,6H14a1,1,0,0,0,0,2H50a1,1,0,0,1,1,1v1H12a1,1,0,0,0,0,2H52a1,1,0,0,0,1-1V59a3,3,0,0,0-3-3H43.62l-3-6H59a3,3,0,0,0,3-3V41A1,1,0,0,0,61,40ZM41.38,56H22.62l3-6H38.38Z"/><path d="M59,6H5A3,3,0,0,0,2,9v8a1,1,0,0,0,2,0V9A1,1,0,0,1,5,8H59a1,1,0,0,1,1,1V37a1,1,0,0,0,2,0V9A3,3,0,0,0,59,6Z"/></g></g></svg>
