<svg xmlns="http://www.w3.org/2000/svg" viewBox="0 0 618.8 170.15"><defs><style>.a{fill:#fff;}</style></defs><title>logo_1</title><path class="a" d="M59.5,135.41c12.3-11.15,57.21-37.82-31.38-104.72C101.51,52,135.94,68.11,140.33,79c5.9,14.65-62.66,48.12-80.83,56.39M170.15,85.07a85.08,85.08,0,1,0-85.08,85.08,85.08,85.08,0,0,0,85.08-85.08m309.74,60.78h6.45v-23h7.75v-5.4H472.26v5.4h7.63Zm-13.2-17.24H456.23V122.7h11.09v-5.27H449.78v28.42h18.13v-5.27H456.23v-6.74h10.46Zm-36.64,17.24h6.45v-23h7.76v-5.4H422.42v5.4h7.63Zm-36.67-28.42v28.42h7.33l5.78-10.25a81.11,81.11,0,0,0,4.8-10.11h.13a117.85,117.85,0,0,0-.46,12v8.39h5.9V117.43h-6.58l-6.11,11.18c-1.69,3-3.58,6.79-5.06,10.12h-.17c.25-3.8.34-8.31.34-12.86v-8.44Zm-7.3,22.6a15.9,15.9,0,0,1-5.35.93c-5.73,0-9.11-3.58-9.11-9.28,0-6.32,4-9.4,9.07-9.4a13.79,13.79,0,0,1,5.39,1.06l1.31-5.1a16.76,16.76,0,0,0-7-1.27c-8.6,0-15.51,5.4-15.51,15.1,0,8.09,5.06,14.2,14.88,14.2a18.3,18.3,0,0,0,7.29-1.22Zm-40-17.7a10.72,10.72,0,0,1,2.66-.26c3.2,0,5,1.56,5,4.18,0,2.9-2.11,4.63-5.53,4.63a9.64,9.64,0,0,1-2.15-.17Zm-6.36,23.52h6.36V135.69a15.24,15.24,0,0,0,2.19.13c3.8,0,7.05-.93,9.24-3a9.05,9.05,0,0,0,2.61-6.74,8.3,8.3,0,0,0-3-6.58c-1.9-1.52-4.72-2.28-8.69-2.28a53.35,53.35,0,0,0-8.68.59ZM332,128.61H321.54V122.7h11.08v-5.27H315.09v28.42h18.12v-5.27H321.54v-6.74H332Zm-38.11,4.68h2.19c3.21,0,5.78,1.14,5.78,4s-2.57,4.09-5.48,4.09a21.35,21.35,0,0,1-2.49-.08Zm0-11.22a18.09,18.09,0,0,1,2.74-.17c2.91,0,4.55,1.14,4.55,3.29s-1.81,3.5-5.18,3.5h-2.11Zm-6.37,23.65a49.69,49.69,0,0,0,7,.43c5.65,0,9.11-.93,11.17-2.58a7.55,7.55,0,0,0,2.95-6,7.1,7.1,0,0,0-5.64-7v-.09c3.2-1.18,4.68-3.54,4.68-6.07a6.18,6.18,0,0,0-3.42-5.56c-2.07-1.23-4.47-1.61-8.39-1.61a52.19,52.19,0,0,0-8.31.59Zm-31.19-28.29v28.42h7.33l5.78-10.25a81.11,81.11,0,0,0,4.8-10.11h.13a117.85,117.85,0,0,0-.46,12v8.39h5.9V117.43h-6.58l-6.11,11.18c-1.69,3-3.58,6.79-5.06,10.12h-.17c.26-3.8.34-8.31.34-12.86v-8.44Zm-31.16,0v28.42h6.45V134h10.58v11.89h6.41V117.43h-6.41v10.92H231.61V117.43Zm-29.55,0L205.18,137a1.29,1.29,0,0,1,.08,1.3,4.12,4.12,0,0,1-3.83,2.66,9.08,9.08,0,0,1-2.11-.21l-.47,5.14a8.59,8.59,0,0,0,3.17.46,9.15,9.15,0,0,0,7.54-3.75c2.11-2.61,3.88-6.91,5.61-11.34l5.31-13.79h-6.74l-3.08,9.91c-.72,2.4-1.18,4.3-1.56,5.52H209c-.63-1.72-1.22-3.41-2-5.43l-4.13-10ZM600.17,64.59c.33,3.54,2.44,5.19,6.15,5.19s6.12-1.56,6.37-5.19h-4.3c-.17,1.65-.68,2.57-2,2.57s-1.82-.92-1.86-2.57Zm-5.48,6.49V99.5H602l5.78-10.25a82.55,82.55,0,0,0,4.8-10.11h.13a117.85,117.85,0,0,0-.46,12V99.5h5.9V71.08h-6.58l-6.11,11.18c-1.69,3-3.58,6.79-5.06,10.12h-.17c.25-3.8.34-8.31.34-12.86V71.08ZM580.1,99.5h6.41V71.08H580.1ZM563,85.84a17.45,17.45,0,0,1,2.27-.17c2.45,0,5.44,1.31,5.44,4.56S568,95,565.22,95a10.16,10.16,0,0,1-2.19-.17Zm-6.37-14.76V99.37a49,49,0,0,0,6.87.43c4.17,0,8.94-.85,11.68-3.63a8.57,8.57,0,0,0,2.28-6.11c0-6.41-5.4-9.32-11.26-9.32a24,24,0,0,0-3.16.25V71.08Zm-31.16,0V99.5H532V87.61h10.59V99.5h6.4V71.08h-6.4V82H532V71.08Zm-31.15,0V99.5h6.45V87.61h10.58V99.5h6.41V71.08h-6.41V82H500.8V71.08Zm-7.72,11.18H476.18V76.35h11.09V71.08H469.73V99.5h18.13V94.23H476.18V87.49h10.45Zm-37.27,4.68h2.2c3.2,0,5.77,1.14,5.77,4S454.76,95,451.85,95a21.44,21.44,0,0,1-2.49-.08Zm0-11.22a18.09,18.09,0,0,1,2.74-.17c2.91,0,4.56,1.14,4.56,3.29s-1.82,3.5-5.19,3.5h-2.11ZM443,99.37a49.4,49.4,0,0,0,6.95.43c5.65,0,9.11-.93,11.18-2.58a7.55,7.55,0,0,0,2.95-6c0-3.67-2.41-6.12-5.65-7v-.09c3.2-1.18,4.68-3.54,4.68-6.07a6.18,6.18,0,0,0-3.42-5.56c-2.06-1.23-4.47-1.61-8.39-1.61a52,52,0,0,0-8.3.59Zm-19.73.13h6.45v-23h7.76v-5.4H415.64v5.4h7.63Zm-13.58-5.82a15.9,15.9,0,0,1-5.35.93c-5.73,0-9.11-3.58-9.11-9.28,0-6.32,4-9.4,9.07-9.4A13.79,13.79,0,0,1,409.69,77l1.31-5.1a16.76,16.76,0,0,0-7-1.27c-8.6,0-15.51,5.4-15.51,15.09,0,8.1,5.05,14.21,14.88,14.21a18.3,18.3,0,0,0,7.29-1.22ZM369.68,76a11.41,11.41,0,0,1,2.66-.25c3.2,0,5,1.56,5,4.18,0,2.9-2.11,4.63-5.53,4.63a9.64,9.64,0,0,1-2.15-.17ZM363.32,99.5h6.36V89.34a16.9,16.9,0,0,0,2.2.13c3.79,0,7-.93,9.23-3a9.09,9.09,0,0,0,2.61-6.74,8.3,8.3,0,0,0-3-6.58c-1.9-1.52-4.72-2.28-8.69-2.28a53.35,53.35,0,0,0-8.68.59ZM341.94,87.4l1.69-6c.46-1.64.88-3.79,1.31-5.48H345c.42,1.69.93,3.79,1.43,5.48l1.77,6Zm7.21,4.81,2.19,7.29h6.92l-8.81-28.42H341L332.33,99.5H339l2-7.29Zm-36.3-15.9h6.2v18h-9.44a23.94,23.94,0,0,0,2-4.8,33.66,33.66,0,0,0,1.26-9.36Zm-5.94-5.23v7.59a34.83,34.83,0,0,1-1.14,9.45,28.65,28.65,0,0,1-2.7,6.32l-2.36.17.25,12.1h4.89l.34-7.21H322.8l.34,7.21H328l.3-12.1-2.83-.17V71.08Zm-30.57,0,9.57,19.53a1.32,1.32,0,0,1,.09,1.3,4.14,4.14,0,0,1-3.84,2.66,9.15,9.15,0,0,1-2.11-.21l-.46,5.14a8.5,8.5,0,0,0,3.16.46,9.18,9.18,0,0,0,7.55-3.75c2.1-2.61,3.88-6.91,5.61-11.34l5.31-13.79h-6.75L291.39,81c-.71,2.4-1.18,4.3-1.56,5.52h-.12c-.64-1.72-1.23-3.41-2-5.43l-4.14-10Zm-6.19,22.6a16,16,0,0,1-5.36.93c-5.73,0-9.1-3.58-9.1-9.28,0-6.32,4-9.4,9.06-9.4a13.85,13.85,0,0,1,5.4,1.06l1.3-5.1a16.76,16.76,0,0,0-7-1.27c-8.6,0-15.51,5.4-15.51,15.09,0,8.1,5.06,14.21,14.88,14.21a18.39,18.39,0,0,0,7.3-1.22Zm-38.2-18c4.43,0,6.87,4.39,6.87,9.49,0,5.52-2.49,9.65-6.83,9.65s-6.91-3.92-6.91-9.48,2.53-9.66,6.87-9.66m.17-5.1c-8.39,0-13.83,6.37-13.83,14.88,0,8.1,4.93,14.46,13.36,14.46s14-5.65,14-15c0-7.84-4.77-14.38-13.49-14.38m-33.86.46V99.5h6.45V76.35h10.75V71.08ZM600.8,18.24c.34,3.54,2.44,5.19,6.15,5.19s6.12-1.56,6.37-5.19H609c-.17,1.65-.68,2.57-2,2.57s-1.82-.92-1.86-2.57Zm-5.48,6.49V53.15h7.33l5.78-10.25a82.55,82.55,0,0,0,4.8-10.11h.13a117.85,117.85,0,0,0-.46,12v8.39h5.9V24.73h-6.58l-6.11,11.18c-1.69,3-3.58,6.78-5.06,10.11h-.17c.26-3.79.34-8.3.34-12.85V24.73Zm-31.2,0V53.15h7.33l5.78-10.25A82.59,82.59,0,0,0,582,32.79h.12a117.85,117.85,0,0,0-.46,12v8.39h5.9V24.73H581l-6.12,11.18c-1.68,3-3.58,6.78-5.06,10.11h-.17c.26-3.79.34-8.3.34-12.85V24.73Zm-27.62,0V53.15h6.37V41.26h1.22c3.46,0,4.77,2.45,5.74,5.65A43,43,0,0,0,552,53.15h6.91a77.27,77.27,0,0,1-3.28-8.94c-1.18-3.41-2.83-5.94-6.5-6.87l9.91-12.61h-7.8l-7.84,11.81h-.55V24.73Zm-7.29,22.6a15.9,15.9,0,0,1-5.35.93c-5.74,0-9.11-3.58-9.11-9.28,0-6.32,4-9.4,9.07-9.4a13.83,13.83,0,0,1,5.39,1.06l1.31-5.1a16.76,16.76,0,0,0-7-1.27c-8.6,0-15.51,5.4-15.51,15.09,0,8.1,5.06,14.21,14.88,14.21a18.34,18.34,0,0,0,7.29-1.22Zm-40.89-7.84a23.39,23.39,0,0,1,2.48-.17c3.08,0,5.57,1.35,5.57,4.6s-2.53,4.72-5.65,4.72a13.26,13.26,0,0,1-2.4-.17ZM482,24.73V53a49.57,49.57,0,0,0,7,.43c4.42,0,9.19-.85,11.93-3.63a8.71,8.71,0,0,0,2.28-6.2c0-6.32-5.19-9.23-11.3-9.23-1.23,0-2.58.13-3.46.21V24.73Zm-26.85,0V37.17c0,4.3-.43,7.93-2.15,9.7a5.37,5.37,0,0,1-3.25,1.52l.8,5.18a11.63,11.63,0,0,0,5.65-1.39c4.3-2.53,5.23-8.14,5.23-15.43V30h6.45V53.15h6.41V24.73ZM432,29.37c4.43,0,6.88,4.39,6.88,9.49,0,5.52-2.49,9.65-6.83,9.65s-6.92-3.92-6.92-9.48,2.53-9.66,6.87-9.66m.17-5.1c-8.39,0-13.83,6.37-13.83,14.88,0,8.1,4.94,14.46,13.37,14.46s13.95-5.64,13.95-15c0-7.84-4.76-14.38-13.49-14.38M389,24.73V53.15h6.45V30h10.08V53.15H412V24.73Zm-20,4.64c4.42,0,6.87,4.39,6.87,9.49,0,5.52-2.49,9.65-6.83,9.65s-6.91-3.92-6.91-9.48,2.53-9.66,6.87-9.66m.17-5.1c-8.4,0-13.83,6.37-13.83,14.88,0,8.1,4.93,14.46,13.36,14.46s14-5.64,14-15c0-7.84-4.77-14.38-13.49-14.38M339.24,53.15h6.45v-23h7.76v-5.4H331.61v5.4h7.63Zm-13.4-5.82a16,16,0,0,1-5.36.93c-5.73,0-9.11-3.58-9.11-9.28,0-6.32,4-9.4,9.07-9.4a13.85,13.85,0,0,1,5.4,1.06l1.3-5.1a16.66,16.66,0,0,0-7-1.27c-8.6,0-15.52,5.4-15.52,15.09,0,8.1,5.06,14.21,14.88,14.21a18.36,18.36,0,0,0,7.3-1.22Zm-41.49-6.28L286,35c.46-1.64.88-3.79,1.31-5.48h.08c.42,1.69.93,3.79,1.43,5.48l1.77,6Zm7.21,4.81,2.19,7.29h6.92l-8.81-28.42h-8.44l-8.68,28.42h6.66l2-7.29Zm-35.12-5.27h2.19c3.21,0,5.78,1.13,5.78,4s-2.57,4.09-5.48,4.09a21.44,21.44,0,0,1-2.49-.08Zm0-11.22a18.09,18.09,0,0,1,2.74-.17c2.91,0,4.56,1.14,4.56,3.29s-1.82,3.5-5.19,3.5h-2.11ZM250.08,53a49.4,49.4,0,0,0,6.95.43c5.65,0,9.11-.93,11.18-2.58a7.56,7.56,0,0,0,3-6c0-3.66-2.41-6.11-5.65-7v-.09c3.2-1.18,4.68-3.54,4.68-6.07a6.18,6.18,0,0,0-3.42-5.56c-2.06-1.23-4.47-1.61-8.39-1.61a52,52,0,0,0-8.3.59Zm-7.72-17.11H231.91V30H243V24.73H225.46V53.15h18.12V47.88H231.91V41.13h10.45Zm-24.2,11.42a15.9,15.9,0,0,1-5.35.93c-5.74,0-9.11-3.58-9.11-9.28,0-6.32,4-9.4,9.07-9.4a13.79,13.79,0,0,1,5.39,1.06l1.31-5.1a16.76,16.76,0,0,0-7-1.27c-8.6,0-15.51,5.4-15.51,15.09,0,8.1,5.06,14.21,14.88,14.21a18.3,18.3,0,0,0,7.29-1.22Z"/></svg>